<mxfile host="app.diagrams.net" agent="Mozilla/5.0 (Windows NT 10.0; Win64; x64) AppleWebKit/537.36 (KHTML, like Gecko) Chrome/138.0.0.0 Safari/537.36" version="28.0.6">
  <diagram name="Página-1" id="f6ngAcPnRKf6-wjxlCl8">
    <mxGraphModel dx="2655" dy="2230" grid="1" gridSize="10" guides="1" tooltips="1" connect="1" arrows="1" fold="1" page="1" pageScale="1" pageWidth="827" pageHeight="1169" math="0" shadow="0">
      <root>
        <mxCell id="0" />
        <mxCell id="1" parent="0" />
        <mxCell id="OUegvE23LO7QQYgmbv4D-98" value="" style="rounded=1;whiteSpace=wrap;html=1;fillColor=#FAC4A8;strokeColor=#C73500;fontColor=#000000;" vertex="1" parent="1">
          <mxGeometry x="-220" y="176.13" width="390" height="266.35" as="geometry" />
        </mxCell>
        <mxCell id="OUegvE23LO7QQYgmbv4D-91" value="" style="rounded=1;whiteSpace=wrap;html=1;fillColor=#f8cecc;strokeColor=#b85450;" vertex="1" parent="1">
          <mxGeometry x="100" y="495.51" width="370" height="321.86" as="geometry" />
        </mxCell>
        <mxCell id="OUegvE23LO7QQYgmbv4D-95" value="" style="rounded=1;whiteSpace=wrap;html=1;fillColor=#B2C9E2;strokeColor=#006EAF;fontColor=#ffffff;" vertex="1" parent="1">
          <mxGeometry x="-334.5" y="495.51" width="384.5" height="321.86" as="geometry" />
        </mxCell>
        <mxCell id="OUegvE23LO7QQYgmbv4D-89" value="" style="rounded=1;whiteSpace=wrap;html=1;fillColor=#d5e8d4;strokeColor=#82b366;" vertex="1" parent="1">
          <mxGeometry x="535" y="509.94" width="370" height="300" as="geometry" />
        </mxCell>
        <mxCell id="OUegvE23LO7QQYgmbv4D-87" value="" style="rounded=1;whiteSpace=wrap;html=1;fillColor=#e1d5e7;strokeColor=#9673a6;" vertex="1" parent="1">
          <mxGeometry x="520" y="220" width="370" height="250" as="geometry" />
        </mxCell>
        <mxCell id="OUegvE23LO7QQYgmbv4D-85" value="" style="rounded=1;whiteSpace=wrap;html=1;fillColor=#ffe6cc;strokeColor=#d79b00;" vertex="1" parent="1">
          <mxGeometry x="500" y="-69.27" width="380" height="269.27" as="geometry" />
        </mxCell>
        <mxCell id="OUegvE23LO7QQYgmbv4D-82" value="" style="rounded=1;whiteSpace=wrap;html=1;fillColor=#dae8fc;strokeColor=#6c8ebf;" vertex="1" parent="1">
          <mxGeometry x="-231.5" y="-180" width="460" height="320" as="geometry" />
        </mxCell>
        <mxCell id="OUegvE23LO7QQYgmbv4D-16" value="" style="edgeStyle=orthogonalEdgeStyle;rounded=0;orthogonalLoop=1;jettySize=auto;html=1;fontSize=12;startSize=8;endSize=8;" edge="1" parent="1" source="OUegvE23LO7QQYgmbv4D-1">
          <mxGeometry relative="1" as="geometry">
            <mxPoint x="360" y="290" as="targetPoint" />
            <Array as="points">
              <mxPoint x="180" y="540" />
              <mxPoint x="390" y="540" />
              <mxPoint x="390" y="290" />
            </Array>
          </mxGeometry>
        </mxCell>
        <mxCell id="OUegvE23LO7QQYgmbv4D-1" value="Bogotá" style="shape=mxgraph.cisco.computers_and_peripherals.ibm_mini_as400;html=1;pointerEvents=1;dashed=0;fillColor=#036897;strokeColor=#ffffff;strokeWidth=2;verticalLabelPosition=bottom;verticalAlign=top;align=center;outlineConnect=0;" vertex="1" parent="1">
          <mxGeometry x="160" y="581.1999999999999" width="50" height="100" as="geometry" />
        </mxCell>
        <mxCell id="OUegvE23LO7QQYgmbv4D-2" value="Santander" style="shape=mxgraph.cisco.computers_and_peripherals.ibm_mini_as400;html=1;pointerEvents=1;dashed=0;fillColor=#036897;strokeColor=#ffffff;strokeWidth=2;verticalLabelPosition=bottom;verticalAlign=top;align=center;outlineConnect=0;" vertex="1" parent="1">
          <mxGeometry x="569" y="530" width="50" height="100" as="geometry" />
        </mxCell>
        <mxCell id="OUegvE23LO7QQYgmbv4D-17" style="edgeStyle=orthogonalEdgeStyle;rounded=0;orthogonalLoop=1;jettySize=auto;html=1;fontSize=12;startSize=8;endSize=8;" edge="1" parent="1" source="OUegvE23LO7QQYgmbv4D-4" target="OUegvE23LO7QQYgmbv4D-18">
          <mxGeometry relative="1" as="geometry">
            <mxPoint x="330" y="269" as="targetPoint" />
            <Array as="points">
              <mxPoint x="-1" y="470" />
              <mxPoint x="280" y="470" />
              <mxPoint x="280" y="269" />
            </Array>
          </mxGeometry>
        </mxCell>
        <mxCell id="OUegvE23LO7QQYgmbv4D-4" value="Santa Marta" style="shape=mxgraph.cisco.computers_and_peripherals.ibm_mini_as400;html=1;pointerEvents=1;dashed=0;fillColor=#036897;strokeColor=#ffffff;strokeWidth=2;verticalLabelPosition=bottom;verticalAlign=top;align=center;outlineConnect=0;" vertex="1" parent="1">
          <mxGeometry x="-26.5" y="520.87" width="50" height="100" as="geometry" />
        </mxCell>
        <mxCell id="OUegvE23LO7QQYgmbv4D-21" style="edgeStyle=orthogonalEdgeStyle;rounded=0;orthogonalLoop=1;jettySize=auto;html=1;fontSize=12;startSize=8;endSize=8;" edge="1" parent="1" source="OUegvE23LO7QQYgmbv4D-5" target="OUegvE23LO7QQYgmbv4D-18">
          <mxGeometry relative="1" as="geometry">
            <Array as="points">
              <mxPoint x="474" y="320" />
              <mxPoint x="474" y="240" />
            </Array>
          </mxGeometry>
        </mxCell>
        <mxCell id="OUegvE23LO7QQYgmbv4D-54" value="" style="edgeStyle=none;curved=1;rounded=0;orthogonalLoop=1;jettySize=auto;html=1;fontSize=12;startSize=8;endSize=8;" edge="1" parent="1" source="OUegvE23LO7QQYgmbv4D-5" target="OUegvE23LO7QQYgmbv4D-51">
          <mxGeometry relative="1" as="geometry" />
        </mxCell>
        <mxCell id="OUegvE23LO7QQYgmbv4D-5" value="Barranq&lt;span style=&quot;background-color: transparent; color: light-dark(rgb(0, 0, 0), rgb(255, 255, 255));&quot;&gt;uilla&lt;/span&gt;" style="shape=mxgraph.cisco.computers_and_peripherals.ibm_mini_as400;html=1;pointerEvents=1;dashed=0;fillColor=#036897;strokeColor=#ffffff;strokeWidth=2;verticalLabelPosition=bottom;verticalAlign=top;align=center;outlineConnect=0;" vertex="1" parent="1">
          <mxGeometry x="550" y="270" width="50" height="100" as="geometry" />
        </mxCell>
        <mxCell id="OUegvE23LO7QQYgmbv4D-6" value="Cali" style="shape=mxgraph.cisco.computers_and_peripherals.ibm_mini_as400;html=1;pointerEvents=1;dashed=0;fillColor=#036897;strokeColor=#ffffff;strokeWidth=2;verticalLabelPosition=bottom;verticalAlign=top;align=center;outlineConnect=0;" vertex="1" parent="1">
          <mxGeometry x="533" y="-4.530000000000005" width="50" height="100" as="geometry" />
        </mxCell>
        <mxCell id="OUegvE23LO7QQYgmbv4D-23" style="edgeStyle=orthogonalEdgeStyle;rounded=0;orthogonalLoop=1;jettySize=auto;html=1;fontSize=12;startSize=8;endSize=8;" edge="1" parent="1" source="OUegvE23LO7QQYgmbv4D-7" target="OUegvE23LO7QQYgmbv4D-18">
          <mxGeometry relative="1" as="geometry" />
        </mxCell>
        <mxCell id="OUegvE23LO7QQYgmbv4D-7" value="Medellin" style="shape=mxgraph.cisco.computers_and_peripherals.ibm_mini_as400;html=1;pointerEvents=1;dashed=0;fillColor=#036897;strokeColor=#ffffff;strokeWidth=2;verticalLabelPosition=bottom;verticalAlign=top;align=center;outlineConnect=0;" vertex="1" parent="1">
          <mxGeometry x="158.5" width="50" height="100" as="geometry" />
        </mxCell>
        <mxCell id="OUegvE23LO7QQYgmbv4D-25" style="edgeStyle=orthogonalEdgeStyle;rounded=0;orthogonalLoop=1;jettySize=auto;html=1;fontSize=12;startSize=8;endSize=8;" edge="1" parent="1" source="OUegvE23LO7QQYgmbv4D-8" target="OUegvE23LO7QQYgmbv4D-18">
          <mxGeometry relative="1" as="geometry">
            <Array as="points">
              <mxPoint x="237" y="320" />
              <mxPoint x="237" y="240" />
            </Array>
          </mxGeometry>
        </mxCell>
        <mxCell id="OUegvE23LO7QQYgmbv4D-8" value="Cartagena" style="shape=mxgraph.cisco.computers_and_peripherals.ibm_mini_as400;html=1;pointerEvents=1;dashed=0;fillColor=#036897;strokeColor=#ffffff;strokeWidth=2;verticalLabelPosition=bottom;verticalAlign=top;align=center;outlineConnect=0;" vertex="1" parent="1">
          <mxGeometry x="90.5" y="270" width="50" height="100" as="geometry" />
        </mxCell>
        <mxCell id="OUegvE23LO7QQYgmbv4D-18" value="" style="shape=mxgraph.cisco.switches.layer_3_switch;sketch=0;html=1;pointerEvents=1;dashed=0;fillColor=#036897;strokeColor=#ffffff;strokeWidth=2;verticalLabelPosition=bottom;verticalAlign=top;align=center;outlineConnect=0;" vertex="1" parent="1">
          <mxGeometry x="334" y="230" width="64" height="64" as="geometry" />
        </mxCell>
        <mxCell id="OUegvE23LO7QQYgmbv4D-20" style="edgeStyle=orthogonalEdgeStyle;rounded=0;orthogonalLoop=1;jettySize=auto;html=1;fontSize=12;startSize=8;endSize=8;" edge="1" parent="1" source="OUegvE23LO7QQYgmbv4D-2" target="OUegvE23LO7QQYgmbv4D-18">
          <mxGeometry relative="1" as="geometry">
            <Array as="points">
              <mxPoint x="594" y="500" />
              <mxPoint x="460" y="500" />
              <mxPoint x="460" y="270" />
            </Array>
          </mxGeometry>
        </mxCell>
        <mxCell id="OUegvE23LO7QQYgmbv4D-22" style="edgeStyle=orthogonalEdgeStyle;rounded=0;orthogonalLoop=1;jettySize=auto;html=1;entryX=0.5;entryY=0;entryDx=0;entryDy=0;entryPerimeter=0;fontSize=12;startSize=8;endSize=8;exitX=0;exitY=0.5;exitDx=0;exitDy=0;exitPerimeter=0;" edge="1" parent="1" source="OUegvE23LO7QQYgmbv4D-6">
          <mxGeometry relative="1" as="geometry">
            <mxPoint x="470" y="111" as="sourcePoint" />
            <mxPoint x="380" y="230" as="targetPoint" />
          </mxGeometry>
        </mxCell>
        <mxCell id="OUegvE23LO7QQYgmbv4D-29" value="" style="edgeStyle=orthogonalEdgeStyle;rounded=0;orthogonalLoop=1;jettySize=auto;html=1;fontSize=12;startSize=8;endSize=8;entryX=0.12;entryY=0.9;entryDx=0;entryDy=0;entryPerimeter=0;" edge="1" parent="1" source="OUegvE23LO7QQYgmbv4D-24" target="OUegvE23LO7QQYgmbv4D-27">
          <mxGeometry relative="1" as="geometry">
            <Array as="points">
              <mxPoint x="-81" y="29.33" />
              <mxPoint x="-81" y="3.3299999999999983" />
            </Array>
          </mxGeometry>
        </mxCell>
        <mxCell id="OUegvE23LO7QQYgmbv4D-24" value="POS" style="shape=mxgraph.cisco.computers_and_peripherals.terminal;sketch=0;html=1;pointerEvents=1;dashed=0;fillColor=#036897;strokeColor=#ffffff;strokeWidth=2;verticalLabelPosition=bottom;verticalAlign=top;align=center;outlineConnect=0;" vertex="1" parent="1">
          <mxGeometry x="-200.5" y="2.269999999999996" width="61" height="54" as="geometry" />
        </mxCell>
        <mxCell id="OUegvE23LO7QQYgmbv4D-27" value="" style="shape=mxgraph.cisco.routers.router;sketch=0;html=1;pointerEvents=1;dashed=0;fillColor=#036897;strokeColor=#ffffff;strokeWidth=2;verticalLabelPosition=bottom;verticalAlign=top;align=center;outlineConnect=0;" vertex="1" parent="1">
          <mxGeometry x="-59" y="-44.230000000000004" width="78" height="53" as="geometry" />
        </mxCell>
        <mxCell id="OUegvE23LO7QQYgmbv4D-28" style="edgeStyle=orthogonalEdgeStyle;rounded=0;orthogonalLoop=1;jettySize=auto;html=1;fontSize=12;startSize=8;endSize=8;" edge="1" parent="1" source="OUegvE23LO7QQYgmbv4D-27" target="OUegvE23LO7QQYgmbv4D-7">
          <mxGeometry relative="1" as="geometry">
            <mxPoint x="119" y="33.33" as="targetPoint" />
          </mxGeometry>
        </mxCell>
        <mxCell id="OUegvE23LO7QQYgmbv4D-31" style="edgeStyle=orthogonalEdgeStyle;rounded=0;orthogonalLoop=1;jettySize=auto;html=1;fontSize=12;startSize=8;endSize=8;" edge="1" parent="1" source="OUegvE23LO7QQYgmbv4D-30" target="OUegvE23LO7QQYgmbv4D-27">
          <mxGeometry relative="1" as="geometry">
            <Array as="points">
              <mxPoint x="-20" y="-112.73" />
            </Array>
          </mxGeometry>
        </mxCell>
        <mxCell id="OUegvE23LO7QQYgmbv4D-30" value="Cliente" style="shape=mxgraph.cisco.computers_and_peripherals.pc;html=1;pointerEvents=1;dashed=0;fillColor=#036897;strokeColor=#ffffff;strokeWidth=2;verticalLabelPosition=bottom;verticalAlign=top;align=center;outlineConnect=0;" vertex="1" parent="1">
          <mxGeometry x="-200.5" y="-97.73" width="78" height="70" as="geometry" />
        </mxCell>
        <mxCell id="OUegvE23LO7QQYgmbv4D-37" value="" style="edgeStyle=orthogonalEdgeStyle;rounded=0;orthogonalLoop=1;jettySize=auto;html=1;fontSize=12;startSize=8;endSize=8;entryX=0.5;entryY=1;entryDx=0;entryDy=0;entryPerimeter=0;" edge="1" parent="1" source="OUegvE23LO7QQYgmbv4D-38" target="OUegvE23LO7QQYgmbv4D-39">
          <mxGeometry relative="1" as="geometry" />
        </mxCell>
        <mxCell id="OUegvE23LO7QQYgmbv4D-38" value="POS" style="shape=mxgraph.cisco.computers_and_peripherals.terminal;sketch=0;html=1;pointerEvents=1;dashed=0;fillColor=#036897;strokeColor=#ffffff;strokeWidth=2;verticalLabelPosition=bottom;verticalAlign=top;align=center;outlineConnect=0;" vertex="1" parent="1">
          <mxGeometry x="-180" y="350.5" width="61" height="54" as="geometry" />
        </mxCell>
        <mxCell id="OUegvE23LO7QQYgmbv4D-42" value="" style="edgeStyle=none;curved=1;rounded=0;orthogonalLoop=1;jettySize=auto;html=1;fontSize=12;startSize=8;endSize=8;" edge="1" parent="1" source="OUegvE23LO7QQYgmbv4D-39" target="OUegvE23LO7QQYgmbv4D-8">
          <mxGeometry relative="1" as="geometry" />
        </mxCell>
        <mxCell id="OUegvE23LO7QQYgmbv4D-39" value="" style="shape=mxgraph.cisco.routers.router;sketch=0;html=1;pointerEvents=1;dashed=0;fillColor=#036897;strokeColor=#ffffff;strokeWidth=2;verticalLabelPosition=bottom;verticalAlign=top;align=center;outlineConnect=0;" vertex="1" parent="1">
          <mxGeometry x="-38.5" y="297.5" width="78" height="53" as="geometry" />
        </mxCell>
        <mxCell id="OUegvE23LO7QQYgmbv4D-40" style="edgeStyle=orthogonalEdgeStyle;rounded=0;orthogonalLoop=1;jettySize=auto;html=1;fontSize=12;startSize=8;endSize=8;" edge="1" parent="1" source="OUegvE23LO7QQYgmbv4D-41" target="OUegvE23LO7QQYgmbv4D-39">
          <mxGeometry relative="1" as="geometry">
            <Array as="points">
              <mxPoint x="0.5" y="235.5" />
            </Array>
          </mxGeometry>
        </mxCell>
        <mxCell id="OUegvE23LO7QQYgmbv4D-41" value="Cliente" style="shape=mxgraph.cisco.computers_and_peripherals.pc;html=1;pointerEvents=1;dashed=0;fillColor=#036897;strokeColor=#ffffff;strokeWidth=2;verticalLabelPosition=bottom;verticalAlign=top;align=center;outlineConnect=0;" vertex="1" parent="1">
          <mxGeometry x="-180" y="250.5" width="78" height="70" as="geometry" />
        </mxCell>
        <mxCell id="OUegvE23LO7QQYgmbv4D-43" value="" style="edgeStyle=orthogonalEdgeStyle;rounded=0;orthogonalLoop=1;jettySize=auto;html=1;fontSize=12;startSize=8;endSize=8;entryX=0.5;entryY=1;entryDx=0;entryDy=0;entryPerimeter=0;" edge="1" parent="1" source="OUegvE23LO7QQYgmbv4D-44" target="OUegvE23LO7QQYgmbv4D-45">
          <mxGeometry relative="1" as="geometry" />
        </mxCell>
        <mxCell id="OUegvE23LO7QQYgmbv4D-44" value="POS" style="shape=mxgraph.cisco.computers_and_peripherals.terminal;sketch=0;html=1;pointerEvents=1;dashed=0;fillColor=#036897;strokeColor=#ffffff;strokeWidth=2;verticalLabelPosition=bottom;verticalAlign=top;align=center;outlineConnect=0;" vertex="1" parent="1">
          <mxGeometry x="763" y="111.47" width="61" height="54" as="geometry" />
        </mxCell>
        <mxCell id="OUegvE23LO7QQYgmbv4D-48" value="" style="edgeStyle=none;curved=1;rounded=0;orthogonalLoop=1;jettySize=auto;html=1;fontSize=12;startSize=8;endSize=8;" edge="1" parent="1" source="OUegvE23LO7QQYgmbv4D-45" target="OUegvE23LO7QQYgmbv4D-6">
          <mxGeometry relative="1" as="geometry" />
        </mxCell>
        <mxCell id="OUegvE23LO7QQYgmbv4D-45" value="" style="shape=mxgraph.cisco.routers.router;sketch=0;html=1;pointerEvents=1;dashed=0;fillColor=#036897;strokeColor=#ffffff;strokeWidth=2;verticalLabelPosition=bottom;verticalAlign=top;align=center;outlineConnect=0;" vertex="1" parent="1">
          <mxGeometry x="653" y="16.469999999999995" width="78" height="53" as="geometry" />
        </mxCell>
        <mxCell id="OUegvE23LO7QQYgmbv4D-46" style="edgeStyle=orthogonalEdgeStyle;rounded=0;orthogonalLoop=1;jettySize=auto;html=1;fontSize=12;startSize=8;endSize=8;" edge="1" parent="1" source="OUegvE23LO7QQYgmbv4D-47" target="OUegvE23LO7QQYgmbv4D-45">
          <mxGeometry relative="1" as="geometry">
            <Array as="points">
              <mxPoint x="802" y="-7.030000000000005" />
              <mxPoint x="713" y="-7.030000000000005" />
            </Array>
          </mxGeometry>
        </mxCell>
        <mxCell id="OUegvE23LO7QQYgmbv4D-47" value="Cliente" style="shape=mxgraph.cisco.computers_and_peripherals.pc;html=1;pointerEvents=1;dashed=0;fillColor=#036897;strokeColor=#ffffff;strokeWidth=2;verticalLabelPosition=bottom;verticalAlign=top;align=center;outlineConnect=0;" vertex="1" parent="1">
          <mxGeometry x="763" y="4.469999999999995" width="78" height="70" as="geometry" />
        </mxCell>
        <mxCell id="OUegvE23LO7QQYgmbv4D-49" value="" style="edgeStyle=orthogonalEdgeStyle;rounded=0;orthogonalLoop=1;jettySize=auto;html=1;fontSize=12;startSize=8;endSize=8;entryX=0.5;entryY=1;entryDx=0;entryDy=0;entryPerimeter=0;" edge="1" parent="1" source="OUegvE23LO7QQYgmbv4D-50" target="OUegvE23LO7QQYgmbv4D-51">
          <mxGeometry relative="1" as="geometry" />
        </mxCell>
        <mxCell id="OUegvE23LO7QQYgmbv4D-50" value="POS" style="shape=mxgraph.cisco.computers_and_peripherals.terminal;sketch=0;html=1;pointerEvents=1;dashed=0;fillColor=#036897;strokeColor=#ffffff;strokeWidth=2;verticalLabelPosition=bottom;verticalAlign=top;align=center;outlineConnect=0;" vertex="1" parent="1">
          <mxGeometry x="790" y="388.48" width="61" height="54" as="geometry" />
        </mxCell>
        <mxCell id="OUegvE23LO7QQYgmbv4D-51" value="" style="shape=mxgraph.cisco.routers.router;sketch=0;html=1;pointerEvents=1;dashed=0;fillColor=#036897;strokeColor=#ffffff;strokeWidth=2;verticalLabelPosition=bottom;verticalAlign=top;align=center;outlineConnect=0;" vertex="1" parent="1">
          <mxGeometry x="680" y="293.48" width="78" height="53" as="geometry" />
        </mxCell>
        <mxCell id="OUegvE23LO7QQYgmbv4D-52" style="edgeStyle=orthogonalEdgeStyle;rounded=0;orthogonalLoop=1;jettySize=auto;html=1;fontSize=12;startSize=8;endSize=8;" edge="1" parent="1" source="OUegvE23LO7QQYgmbv4D-53" target="OUegvE23LO7QQYgmbv4D-51">
          <mxGeometry relative="1" as="geometry">
            <Array as="points">
              <mxPoint x="829" y="269.98" />
              <mxPoint x="740" y="269.98" />
            </Array>
          </mxGeometry>
        </mxCell>
        <mxCell id="OUegvE23LO7QQYgmbv4D-53" value="Cliente" style="shape=mxgraph.cisco.computers_and_peripherals.pc;html=1;pointerEvents=1;dashed=0;fillColor=#036897;strokeColor=#ffffff;strokeWidth=2;verticalLabelPosition=bottom;verticalAlign=top;align=center;outlineConnect=0;" vertex="1" parent="1">
          <mxGeometry x="790" y="281.48" width="78" height="70" as="geometry" />
        </mxCell>
        <mxCell id="OUegvE23LO7QQYgmbv4D-55" value="" style="edgeStyle=orthogonalEdgeStyle;rounded=0;orthogonalLoop=1;jettySize=auto;html=1;fontSize=12;startSize=8;endSize=8;entryX=0.5;entryY=1;entryDx=0;entryDy=0;entryPerimeter=0;" edge="1" parent="1" source="OUegvE23LO7QQYgmbv4D-56" target="OUegvE23LO7QQYgmbv4D-57">
          <mxGeometry relative="1" as="geometry" />
        </mxCell>
        <mxCell id="OUegvE23LO7QQYgmbv4D-56" value="POS" style="shape=mxgraph.cisco.computers_and_peripherals.terminal;sketch=0;html=1;pointerEvents=1;dashed=0;fillColor=#036897;strokeColor=#ffffff;strokeWidth=2;verticalLabelPosition=bottom;verticalAlign=top;align=center;outlineConnect=0;" vertex="1" parent="1">
          <mxGeometry x="791" y="728.44" width="61" height="54" as="geometry" />
        </mxCell>
        <mxCell id="OUegvE23LO7QQYgmbv4D-60" style="edgeStyle=orthogonalEdgeStyle;rounded=0;orthogonalLoop=1;jettySize=auto;html=1;fontSize=12;startSize=8;endSize=8;" edge="1" parent="1" source="OUegvE23LO7QQYgmbv4D-57" target="OUegvE23LO7QQYgmbv4D-2">
          <mxGeometry relative="1" as="geometry">
            <Array as="points">
              <mxPoint x="669" y="660" />
              <mxPoint x="669" y="590" />
            </Array>
          </mxGeometry>
        </mxCell>
        <mxCell id="OUegvE23LO7QQYgmbv4D-57" value="" style="shape=mxgraph.cisco.routers.router;sketch=0;html=1;pointerEvents=1;dashed=0;fillColor=#036897;strokeColor=#ffffff;strokeWidth=2;verticalLabelPosition=bottom;verticalAlign=top;align=center;outlineConnect=0;" vertex="1" parent="1">
          <mxGeometry x="681" y="633.44" width="78" height="53" as="geometry" />
        </mxCell>
        <mxCell id="OUegvE23LO7QQYgmbv4D-58" style="edgeStyle=orthogonalEdgeStyle;rounded=0;orthogonalLoop=1;jettySize=auto;html=1;fontSize=12;startSize=8;endSize=8;" edge="1" parent="1" source="OUegvE23LO7QQYgmbv4D-59" target="OUegvE23LO7QQYgmbv4D-57">
          <mxGeometry relative="1" as="geometry">
            <Array as="points">
              <mxPoint x="830" y="609.94" />
              <mxPoint x="741" y="609.94" />
            </Array>
          </mxGeometry>
        </mxCell>
        <mxCell id="OUegvE23LO7QQYgmbv4D-59" value="Cliente" style="shape=mxgraph.cisco.computers_and_peripherals.pc;html=1;pointerEvents=1;dashed=0;fillColor=#036897;strokeColor=#ffffff;strokeWidth=2;verticalLabelPosition=bottom;verticalAlign=top;align=center;outlineConnect=0;" vertex="1" parent="1">
          <mxGeometry x="791" y="621.44" width="78" height="70" as="geometry" />
        </mxCell>
        <mxCell id="OUegvE23LO7QQYgmbv4D-61" value="" style="edgeStyle=orthogonalEdgeStyle;rounded=0;orthogonalLoop=1;jettySize=auto;html=1;fontSize=12;startSize=8;endSize=8;entryX=0.5;entryY=1;entryDx=0;entryDy=0;entryPerimeter=0;" edge="1" parent="1" source="OUegvE23LO7QQYgmbv4D-62" target="OUegvE23LO7QQYgmbv4D-63">
          <mxGeometry relative="1" as="geometry" />
        </mxCell>
        <mxCell id="OUegvE23LO7QQYgmbv4D-62" value="POS" style="shape=mxgraph.cisco.computers_and_peripherals.terminal;sketch=0;html=1;pointerEvents=1;dashed=0;fillColor=#036897;strokeColor=#ffffff;strokeWidth=2;verticalLabelPosition=bottom;verticalAlign=top;align=center;outlineConnect=0;" vertex="1" parent="1">
          <mxGeometry x="230" y="722.04" width="61" height="54" as="geometry" />
        </mxCell>
        <mxCell id="OUegvE23LO7QQYgmbv4D-66" style="edgeStyle=none;curved=1;rounded=0;orthogonalLoop=1;jettySize=auto;html=1;fontSize=12;startSize=8;endSize=8;" edge="1" parent="1" source="OUegvE23LO7QQYgmbv4D-63" target="OUegvE23LO7QQYgmbv4D-1">
          <mxGeometry relative="1" as="geometry" />
        </mxCell>
        <mxCell id="OUegvE23LO7QQYgmbv4D-63" value="" style="shape=mxgraph.cisco.routers.router;sketch=0;html=1;pointerEvents=1;dashed=0;fillColor=#036897;strokeColor=#ffffff;strokeWidth=2;verticalLabelPosition=bottom;verticalAlign=top;align=center;outlineConnect=0;" vertex="1" parent="1">
          <mxGeometry x="270" y="604.6999999999999" width="78" height="53" as="geometry" />
        </mxCell>
        <mxCell id="OUegvE23LO7QQYgmbv4D-64" style="edgeStyle=orthogonalEdgeStyle;rounded=0;orthogonalLoop=1;jettySize=auto;html=1;fontSize=12;startSize=8;endSize=8;" edge="1" parent="1" source="OUegvE23LO7QQYgmbv4D-91" target="OUegvE23LO7QQYgmbv4D-63">
          <mxGeometry relative="1" as="geometry">
            <Array as="points">
              <mxPoint x="330" y="581.18" />
            </Array>
          </mxGeometry>
        </mxCell>
        <mxCell id="OUegvE23LO7QQYgmbv4D-65" value="Sede Central" style="shape=mxgraph.cisco.computers_and_peripherals.pc;html=1;pointerEvents=1;dashed=0;fillColor=#036897;strokeColor=#ffffff;strokeWidth=2;verticalLabelPosition=bottom;verticalAlign=top;align=center;outlineConnect=0;" vertex="1" parent="1">
          <mxGeometry x="362" y="635.6199999999999" width="78" height="70" as="geometry" />
        </mxCell>
        <mxCell id="OUegvE23LO7QQYgmbv4D-67" value="" style="edgeStyle=orthogonalEdgeStyle;rounded=0;orthogonalLoop=1;jettySize=auto;html=1;fontSize=12;startSize=8;endSize=8;entryX=0.5;entryY=1;entryDx=0;entryDy=0;entryPerimeter=0;" edge="1" parent="1" source="OUegvE23LO7QQYgmbv4D-68" target="OUegvE23LO7QQYgmbv4D-69">
          <mxGeometry relative="1" as="geometry" />
        </mxCell>
        <mxCell id="OUegvE23LO7QQYgmbv4D-68" value="POS" style="shape=mxgraph.cisco.computers_and_peripherals.terminal;sketch=0;html=1;pointerEvents=1;dashed=0;fillColor=#036897;strokeColor=#ffffff;strokeWidth=2;verticalLabelPosition=bottom;verticalAlign=top;align=center;outlineConnect=0;" vertex="1" parent="1">
          <mxGeometry x="-305.5" y="709.36" width="61" height="54" as="geometry" />
        </mxCell>
        <mxCell id="OUegvE23LO7QQYgmbv4D-72" style="edgeStyle=orthogonalEdgeStyle;rounded=0;orthogonalLoop=1;jettySize=auto;html=1;fontSize=12;startSize=8;endSize=8;" edge="1" parent="1" source="OUegvE23LO7QQYgmbv4D-69" target="OUegvE23LO7QQYgmbv4D-4">
          <mxGeometry relative="1" as="geometry">
            <Array as="points">
              <mxPoint x="-96.5" y="570.87" />
            </Array>
          </mxGeometry>
        </mxCell>
        <mxCell id="OUegvE23LO7QQYgmbv4D-69" value="" style="shape=mxgraph.cisco.routers.router;sketch=0;html=1;pointerEvents=1;dashed=0;fillColor=#036897;strokeColor=#ffffff;strokeWidth=2;verticalLabelPosition=bottom;verticalAlign=top;align=center;outlineConnect=0;" vertex="1" parent="1">
          <mxGeometry x="-164" y="656.36" width="78" height="53" as="geometry" />
        </mxCell>
        <mxCell id="OUegvE23LO7QQYgmbv4D-70" style="edgeStyle=orthogonalEdgeStyle;rounded=0;orthogonalLoop=1;jettySize=auto;html=1;fontSize=12;startSize=8;endSize=8;" edge="1" parent="1" source="OUegvE23LO7QQYgmbv4D-71" target="OUegvE23LO7QQYgmbv4D-69">
          <mxGeometry relative="1" as="geometry">
            <Array as="points">
              <mxPoint x="-125" y="594.36" />
            </Array>
          </mxGeometry>
        </mxCell>
        <mxCell id="OUegvE23LO7QQYgmbv4D-71" value="Cliente" style="shape=mxgraph.cisco.computers_and_peripherals.pc;html=1;pointerEvents=1;dashed=0;fillColor=#036897;strokeColor=#ffffff;strokeWidth=2;verticalLabelPosition=bottom;verticalAlign=top;align=center;outlineConnect=0;" vertex="1" parent="1">
          <mxGeometry x="-305.5" y="609.36" width="78" height="70" as="geometry" />
        </mxCell>
        <mxCell id="OUegvE23LO7QQYgmbv4D-73" value="TOPOLOGIA RAKUTEN COLOMBIA" style="text;html=1;align=center;verticalAlign=middle;resizable=0;points=[];autosize=1;strokeColor=none;fillColor=none;fontSize=21;fontStyle=1;spacing=3;" vertex="1" parent="1">
          <mxGeometry x="221" y="-260" width="370" height="40" as="geometry" />
        </mxCell>
        <mxCell id="OUegvE23LO7QQYgmbv4D-76" value="" style="shape=mxgraph.cisco.computers_and_peripherals.printer;sketch=0;html=1;pointerEvents=1;dashed=0;fillColor=#036897;strokeColor=#ffffff;strokeWidth=2;verticalLabelPosition=bottom;verticalAlign=top;align=center;outlineConnect=0;" vertex="1" parent="1">
          <mxGeometry x="58.5" y="-120" width="91" height="34" as="geometry" />
        </mxCell>
        <mxCell id="OUegvE23LO7QQYgmbv4D-80" style="edgeStyle=orthogonalEdgeStyle;rounded=0;orthogonalLoop=1;jettySize=auto;html=1;fontSize=12;startSize=8;endSize=8;" edge="1" parent="1" source="OUegvE23LO7QQYgmbv4D-77" target="OUegvE23LO7QQYgmbv4D-27">
          <mxGeometry relative="1" as="geometry" />
        </mxCell>
        <mxCell id="OUegvE23LO7QQYgmbv4D-77" value="" style="shape=mxgraph.cisco.misc.access_point;sketch=0;html=1;pointerEvents=1;dashed=0;fillColor=#036897;strokeColor=#ffffff;strokeWidth=2;verticalLabelPosition=bottom;verticalAlign=top;align=center;outlineConnect=0;" vertex="1" parent="1">
          <mxGeometry x="-67" y="65.33" width="75" height="34" as="geometry" />
        </mxCell>
        <mxCell id="OUegvE23LO7QQYgmbv4D-78" style="edgeStyle=none;curved=1;rounded=0;orthogonalLoop=1;jettySize=auto;html=1;exitX=0.5;exitY=0.985;exitDx=0;exitDy=0;exitPerimeter=0;fontSize=12;startSize=8;endSize=8;" edge="1" parent="1" source="OUegvE23LO7QQYgmbv4D-77" target="OUegvE23LO7QQYgmbv4D-77">
          <mxGeometry relative="1" as="geometry" />
        </mxCell>
        <mxCell id="OUegvE23LO7QQYgmbv4D-79" style="edgeStyle=orthogonalEdgeStyle;rounded=0;orthogonalLoop=1;jettySize=auto;html=1;entryX=0.88;entryY=0.1;entryDx=0;entryDy=0;entryPerimeter=0;fontSize=12;startSize=8;endSize=8;" edge="1" parent="1" source="OUegvE23LO7QQYgmbv4D-76" target="OUegvE23LO7QQYgmbv4D-27">
          <mxGeometry relative="1" as="geometry" />
        </mxCell>
        <mxCell id="OUegvE23LO7QQYgmbv4D-83" value="Medellín" style="text;strokeColor=none;fillColor=none;html=1;align=center;verticalAlign=middle;whiteSpace=wrap;rounded=0;fontSize=20;fontStyle=1" vertex="1" parent="1">
          <mxGeometry x="-31.5" y="-170" width="60" height="30" as="geometry" />
        </mxCell>
        <mxCell id="OUegvE23LO7QQYgmbv4D-86" value="Cali" style="text;strokeColor=none;fillColor=none;html=1;align=center;verticalAlign=middle;whiteSpace=wrap;rounded=0;fontSize=16;fontStyle=1" vertex="1" parent="1">
          <mxGeometry x="664" y="-53.5" width="60" height="30" as="geometry" />
        </mxCell>
        <mxCell id="OUegvE23LO7QQYgmbv4D-88" value="Barranquilla" style="text;strokeColor=none;fillColor=none;html=1;align=center;verticalAlign=middle;whiteSpace=wrap;rounded=0;fontSize=16;fontStyle=1" vertex="1" parent="1">
          <mxGeometry x="680" y="230" width="60" height="30" as="geometry" />
        </mxCell>
        <mxCell id="OUegvE23LO7QQYgmbv4D-90" value="Santander" style="text;strokeColor=none;fillColor=none;html=1;align=center;verticalAlign=middle;whiteSpace=wrap;rounded=0;fontSize=16;fontStyle=1" vertex="1" parent="1">
          <mxGeometry x="710" y="530" width="60" height="30" as="geometry" />
        </mxCell>
        <mxCell id="OUegvE23LO7QQYgmbv4D-92" value="Bogotá" style="text;strokeColor=none;fillColor=none;html=1;align=center;verticalAlign=middle;whiteSpace=wrap;rounded=0;fontSize=16;fontStyle=1" vertex="1" parent="1">
          <mxGeometry x="255" y="512.68" width="60" height="30" as="geometry" />
        </mxCell>
        <mxCell id="OUegvE23LO7QQYgmbv4D-96" value="Santa Marta" style="text;strokeColor=none;fillColor=none;html=1;align=center;verticalAlign=middle;whiteSpace=wrap;rounded=0;fontSize=16;fontStyle=1" vertex="1" parent="1">
          <mxGeometry x="-240" y="520.87" width="100" height="30" as="geometry" />
        </mxCell>
        <mxCell id="OUegvE23LO7QQYgmbv4D-97" value="" style="edgeStyle=orthogonalEdgeStyle;rounded=0;orthogonalLoop=1;jettySize=auto;html=1;fontSize=12;startSize=8;endSize=8;" edge="1" parent="1" source="OUegvE23LO7QQYgmbv4D-65" target="OUegvE23LO7QQYgmbv4D-91">
          <mxGeometry relative="1" as="geometry">
            <Array as="points">
              <mxPoint x="401" y="581.18" />
            </Array>
            <mxPoint x="401" y="636" as="sourcePoint" />
            <mxPoint x="330" y="605" as="targetPoint" />
          </mxGeometry>
        </mxCell>
        <mxCell id="OUegvE23LO7QQYgmbv4D-99" value="Cartagena" style="text;strokeColor=none;fillColor=none;html=1;align=center;verticalAlign=middle;whiteSpace=wrap;rounded=0;fontSize=16;fontStyle=1" vertex="1" parent="1">
          <mxGeometry x="12.5" y="200" width="100" height="30" as="geometry" />
        </mxCell>
      </root>
    </mxGraphModel>
  </diagram>
</mxfile>
